<svg width="350" height="310" viewBox="0 0 350 310" fill="none" xmlns="http://www.w3.org/2000/svg">
<path fill-rule="evenodd" clip-rule="evenodd" d="M198.998 215.247C236.956 214.117 276.719 206.468 308.366 185.332C319.881 177.643 329.015 167.866 338.455 157.94C339.118 157.245 339.094 156.148 338.399 155.492C337.7 154.84 336.596 154.876 335.931 155.577C326.672 165.311 317.736 174.922 306.443 182.462C275.245 203.298 236.009 210.729 198.6 211.795L198.543 211.225C197.946 205.031 192.448 198.644 184.491 193.198C173.086 185.39 156.73 179.354 144.326 177.954C138.752 177.326 133.943 177.653 130.624 179.05C128.036 180.137 126.271 181.863 125.489 184.209C123.825 189.211 126.926 194.336 133.085 198.806C145.966 208.158 172.084 215.218 184.139 215.371C187.904 215.418 191.701 215.409 195.516 215.332C195.651 216.418 195.779 217.482 195.856 218.523C196.067 221.49 195.855 224.312 193.998 227.228C191.098 231.77 186.349 234.994 180.947 237.35C172.515 241.021 162.481 242.549 154.869 243.284C112.48 247.376 80.6609 230.54 56.511 209.166C32.1255 187.576 15.5077 161.359 3.73059 147.028C3.1263 146.29 2.0289 146.191 1.2791 146.799C0.529312 147.408 0.413766 148.502 1.02205 149.238C12.874 163.663 29.6273 190.032 54.1785 211.763C78.9653 233.71 111.654 250.933 155.167 246.736C163.096 245.97 173.536 244.345 182.317 240.522C188.394 237.873 193.676 234.17 196.938 229.058C199.864 224.47 199.565 220.101 198.998 215.247ZM195.099 211.875L195.074 211.591C194.552 206.176 189.45 200.821 182.491 196.06C171.532 188.557 155.82 182.744 143.893 181.4C139.804 180.937 136.181 180.998 133.394 181.748C131.096 182.37 129.406 183.44 128.802 185.265C128.224 186.986 128.582 188.693 129.564 190.358C130.714 192.314 132.673 194.193 135.16 196.001C147.538 204.986 172.637 211.76 184.221 211.906C187.819 211.949 191.447 211.942 195.099 211.875Z" fill="#FFE2DD"/>
<path fill-rule="evenodd" clip-rule="evenodd" d="M339.644 151.094C339.881 151.812 339.902 152.875 339.911 154.018C339.934 156.742 339.543 159.881 339.419 161.367C339.341 162.324 340.059 163.149 341.017 163.218C341.979 163.285 342.82 162.566 342.897 161.61C343.047 159.788 343.56 155.604 343.347 152.503C343.231 150.839 342.868 149.448 342.3 148.626C341.336 147.224 339.631 146.981 337.326 148.377C334.601 150.031 330.254 154.344 325.013 155.166C324.062 155.314 323.401 156.207 323.543 157.148C323.683 158.095 324.568 158.74 325.523 158.59C330.519 157.804 334.864 154.309 337.898 152.149C338.475 151.739 339.206 151.33 339.644 151.094Z" fill="#FFE2DD"/>
</svg>
